<svg width="28" height="28" viewBox="0 0 28 28" fill="none" xmlns="http://www.w3.org/2000/svg">
<circle cx="14" cy="14" r="14" fill="transparent"/>
<path d="M3.93921 23.7356C4.65476 22.5167 5.66357 21.4614 6.93709 20.6121C8.91707 19.2926 11.4251 18.5664 14 18.5664C16.5748 18.5664 19.0829 19.2931 21.0629 20.6121C22.3365 21.4611 23.3454 22.5164 24.0609 23.7354C21.5157 26.3652 17.9488 28 14 28C10.0513 28 6.48439 26.3652 3.93921 23.7356Z" fill="currentColor"/>
<path d="M14 4.78516C15.615 4.78516 17.0782 5.408 18.1257 6.53904C19.1863 7.68406 19.703 9.2253 19.5808 10.878C19.3381 14.1677 16.8386 16.8437 14 16.8437C11.1614 16.8437 8.65759 14.1672 8.41857 10.8769C8.29799 9.20915 8.81155 7.66468 9.8656 6.52827C10.9083 5.40424 12.3764 4.78516 14 4.78516Z" fill="currentColor"/>
</svg>
