<svg xmlns="http://www.w3.org/2000/svg" fill="none" viewBox="0 0 24 24">
  <path fill="currentColor" d="M22.5 6a3 3 0 00-3-3h-.75v-.729c0-.404-.31-.75-.714-.77a.75.75 0 00-.786.749V3H6.75v-.729c0-.404-.31-.75-.714-.77a.75.75 0 00-.786.749V3H4.5a3 3 0 00-3 3v.562a.187.187 0 00.188.188h20.625a.188.188 0 00.187-.188V6zm-21 13.5a3 3 0 003 3h15a3 3 0 003-3V8.39a.14.14 0 00-.14-.14H1.64a.14.14 0 00-.14.14V19.5zm16.125-9.75a1.125 1.125 0 110 2.25 1.125 1.125 0 010-2.25zm0 3.75a1.125 1.125 0 110 2.25 1.125 1.125 0 010-2.25zm-3.75-3.75a1.125 1.125 0 110 2.25 1.125 1.125 0 010-2.25zm0 3.75a1.125 1.125 0 110 2.25 1.125 1.125 0 010-2.25zm0 3.75a1.125 1.125 0 110 2.25 1.125 1.125 0 010-2.25zm-3.75-3.75a1.125 1.125 0 110 2.25 1.125 1.125 0 010-2.25zm0 3.75a1.125 1.125 0 110 2.25 1.125 1.125 0 010-2.25zm-3.75-3.75a1.125 1.125 0 110 2.25 1.125 1.125 0 010-2.25zm0 3.75a1.125 1.125 0 110 2.25 1.125 1.125 0 010-2.25z"/>
</svg>
