<svg xmlns="http://www.w3.org/2000/svg" fill="none" viewBox="0 0 24 24">
  <path fill="currentColor" fill-rule="evenodd" d="M18 3.38V19.5a3 3 0 002.24 2.91.05.05 0 010 .06v.01a.05.05 0 01-.04.02H4.13a2.63 2.63 0 01-2.63-2.63V3.38A1.88 1.88 0 013.38 1.5h12.75A1.87 1.87 0 0118 3.38zM4.72 5.46A.75.75 0 004.5 6v3a.75.75 0 00.75.75h3A.75.75 0 009 9V6a.75.75 0 00-.75-.75h-3c-.2 0-.39.08-.53.22zm.55 13.28h8.98a.75.75 0 00.75-.79.76.76 0 00-.77-.71H5.25a.75.75 0 00-.75.79c.02.4.37.71.77.71zm0-3h8.98a.75.75 0 00.75-.79.76.76 0 00-.77-.71H5.25a.75.75 0 00-.75.79c.02.4.37.71.77.71zm0-3h8.98a.75.75 0 00.75-.79.76.76 0 00-.77-.71H5.25a.75.75 0 00-.75.79c.02.4.37.71.77.71zm6-3h2.98a.75.75 0 00.75-.79.76.76 0 00-.77-.71h-2.98a.75.75 0 00-.75.79c.02.4.37.71.77.71zm0-3h2.98a.75.75 0 00.75-.79.76.76 0 00-.77-.71h-2.98a.75.75 0 00-.75.79c.02.4.37.71.77.71z" clip-rule="evenodd"/>
  <path fill="currentColor" d="M19.5 5.25h1.12a1.88 1.88 0 011.88 1.88V19.5a1.5 1.5 0 11-3 0V5.25z"/>
</svg>
