<svg xmlns="http://www.w3.org/2000/svg" fill="none" viewBox="0 0 24 24">
  <path fill="currentColor" d="M15.75 12a3.6 3.6 0 01-2.63-1.21 4.68 4.68 0 01-1.21-2.86 3.91 3.91 0 01.99-2.99 3.83 3.83 0 012.85-1.19c1.12 0 2.13.42 2.85 1.2a3.9 3.9 0 011 2.98 4.7 4.7 0 01-1.23 2.86A3.59 3.59 0 0115.75 12zm6.18 8.25H9.57a1.3 1.3 0 01-1.03-.5 1.42 1.42 0 01-.25-1.2 6.18 6.18 0 012.83-3.81 8.9 8.9 0 014.63-1.24c1.73 0 3.33.42 4.63 1.22a6.14 6.14 0 012.83 3.82 1.42 1.42 0 01-.25 1.21 1.3 1.3 0 01-1.03.5zM6.89 12.19c-1.65 0-3.1-1.54-3.23-3.42a3.3 3.3 0 01.84-2.51c.6-.65 1.45-1.01 2.4-1.01.93 0 1.77.36 2.38 1.01.61.66.91 1.55.84 2.51-.13 1.88-1.58 3.42-3.23 3.42zm3.08 1.47c-.83-.4-1.9-.6-3.08-.6-1.38 0-2.72.36-3.78 1.01-1.2.74-2 1.82-2.32 3.13A1.28 1.28 0 001 18.3a1.19 1.19 0 00.95.45h5.2a.37.37 0 00.37-.3c0-.04 0-.07.02-.1a6.79 6.79 0 012.7-3.93.37.37 0 00-.03-.62 3.82 3.82 0 00-.25-.14z"/>
</svg>
