<svg xmlns="http://www.w3.org/2000/svg" fill="none" viewBox="0 0 24 24">
  <path fill="currentColor" d="M4.5 8.09L.98 11.44a.77.77 0 00-.04 1.08.75.75 0 001.06.02l9.73-9.3a.38.38 0 01.52 0l9.72 9.3a.75.75 0 001.1-.05.76.76 0 00-.07-1.05L13.04 1.9c-.26-.25-.63-.4-1.04-.4-.4 0-.79.15-1.04.4L8.24 4.5V3a.75.75 0 00-.75-.75H5.24A.75.75 0 004.5 3v5.09z"/>
  <path fill="currentColor" d="M12 4.64c-.1 0-.2.04-.26.1L3.1 13a.38.38 0 00-.11.27V21a1.5 1.5 0 001.5 1.5H9a.75.75 0 00.75-.75v-6.38a.38.38 0 01.38-.37h3.75a.38.38 0 01.37.38v6.37a.75.75 0 00.75.75h4.5A1.5 1.5 0 0021 21v-7.74a.37.37 0 00-.11-.27l-8.63-8.24a.37.37 0 00-.26-.1z"/>
</svg>
