<svg width="16" height="16" viewBox="0 0 16 16" fill="none" xmlns="http://www.w3.org/2000/svg">
<g clip-path="url(#clip0)">
<g opacity="0.5">
<rect opacity="0.5" x="2" y="4.5" width="12" height="1.5" rx="0.75" fill="currentColor"/>
<rect opacity="0.5" x="2" y="7" width="12" height="1.5" rx="0.75" fill="currentColor"/>
<rect opacity="0.5" x="2" y="9.5" width="12" height="1.5" rx="0.75" fill="currentColor"/>
<path d="M9.44646 2.437L8.16669 0.119059C8.14607 0.0817167 8.12048 0.051742 8.09168 0.0311912C8.06289 0.0106405 8.03157 1.10044e-07 7.99988 1.07274e-07C7.96819 1.04503e-07 7.93687 0.0106405 7.90808 0.0311912C7.87928 0.0517419 7.85369 0.0817166 7.83307 0.119059L6.5533 2.437C6.43117 2.65825 6.53243 3 6.72012 3L9.28001 3C9.4677 3 9.56896 2.65825 9.44646 2.437Z" fill="currentColor"/>
<path d="M6.55354 13.063L7.83331 15.3809C7.85394 15.4183 7.87952 15.4483 7.90832 15.4688C7.93711 15.4894 7.96843 15.5 8.00012 15.5C8.03181 15.5 8.06313 15.4894 8.09192 15.4688C8.12072 15.4483 8.14631 15.4183 8.16693 15.3809L9.4467 13.063C9.56883 12.8418 9.46757 12.5 9.27988 12.5H6.71999C6.5323 12.5 6.43104 12.8418 6.55354 13.063Z" fill="currentColor"/>
</g>
</g>
<defs>
<clipPath id="clip0">
<rect width="16" height="16" fill="white"/>
</clipPath>
</defs>
</svg>
