<svg xmlns="http://www.w3.org/2000/svg" fill="none" viewBox="0 0 24 24">
  <path fill="currentColor" fill-rule="evenodd" d="M12 1.5c.32 0 .61.2.71.52L14.98 9h7.52a.75.75 0 01.42 1.37l-6.1 4.18 2.36 6.96a.75.75 0 01-1.15.85L12 17.99l-6.03 4.37a.75.75 0 01-1.15-.85l2.35-6.96-6.1-4.18A.75.75 0 011.5 9h7.52l2.27-6.98c.1-.31.39-.52.71-.52zm0 3.18l-1.72 5.3c-.1.31-.4.52-.72.52H3.92l4.57 3.13c.27.2.39.54.28.86L7 19.76l4.57-3.3a.75.75 0 01.88 0l4.57 3.3-1.78-5.27a.75.75 0 01.28-.86l4.57-3.13h-5.64a.75.75 0 01-.72-.52L12 4.68z" clip-rule="evenodd"/>
</svg>
